<svg width="32" height="32" xmlns="http://www.w3.org/2000/svg">

 <g>
  <title>background</title>
  <rect fill="none" id="canvas_background" height="34" width="34" y="-1" x="-1"/>
 </g>
 <g>
  <title>Layer 1</title>
  <path fill="#09f467" stroke="null" id="svg_1" d="m11.08121,22.88215c1.23816,-1.31219 2.94605,-2.12401 4.83391,-2.12401s3.59576,0.81182 4.83391,2.12401l-4.83391,5.12622l-4.83391,-5.12622zm-2.22996,-2.36654c1.80873,-1.91723 4.30546,-3.10305 7.06387,-3.10305s5.25642,1.18582 7.06387,3.10305l2.97413,-3.15538c-2.56822,-2.72394 -6.11802,-4.40886 -10.038,-4.40886s-7.46978,1.68491 -10.038,4.41013l2.97413,3.15411zm-5.20536,-5.52064c3.14007,-3.33026 7.47872,-5.38917 12.26923,-5.38917s9.12917,2.05891 12.26923,5.38917l3.04816,-3.23325c-3.91998,-4.1574 -9.33467,-6.72944 -15.31739,-6.72944s-11.39742,2.57205 -15.31739,6.72944l3.04816,3.23325z"/>
 </g>
</svg>